<svg width="80" height="80" viewBox="0 0 80 80" fill="none" xmlns="http://www.w3.org/2000/svg">
<path d="M40.0007 20.0007C43.6673 20.0007 46.6673 23.0007 46.6673 26.6673C46.6673 30.334 43.6673 33.334 40.0007 33.334C36.334 33.334 33.334 30.334 33.334 26.6673C33.334 23.0007 36.334 20.0007 40.0007 20.0007ZM40.0007 53.334C49.0006 53.334 59.334 57.634 60.0006 60.0006H20.0007C20.7673 57.6007 31.034 53.334 40.0007 53.334ZM40.0007 13.334C32.634 13.334 26.6673 19.3007 26.6673 26.6673C26.6673 34.034 32.634 40.0007 40.0007 40.0007C47.3673 40.0007 53.334 34.034 53.334 26.6673C53.334 19.3007 47.3673 13.334 40.0007 13.334ZM40.0007 46.6673C31.1007 46.6673 13.334 51.134 13.334 60.0006V66.6673H66.6673V60.0006C66.6673 51.134 48.9007 46.6673 40.0007 46.6673Z" fill="white"/>
</svg>
